<svg xmlns="http://www.w3.org/2000/svg" viewBox="0 0 22 26" width="64" height="64"><path d="M11,14C4.92,14,0,15.75,0,17.9v4.2C0,24.25,4.92,26,11,26s11-1.75,11-3.9V17.9C22,15.75,17.08,14,11,14Z" fill="#ffa000"/><ellipse cx="11" cy="18" rx="11" ry="4" fill="#ffc107"/><path d="M11,7C4.92,7,0,8.75,0,10.9v4.2C0,17.25,4.92,19,11,19s11-1.75,11-3.9V10.9C22,8.75,17.08,7,11,7Z" fill="#ffa000"/><ellipse cx="11" cy="11" rx="11" ry="4" fill="#ffc107"/><path d="M11,0C4.92,0,0,1.75,0,3.9V8.1C0,10.25,4.92,12,11,12s11-1.75,11-3.9V3.9C22,1.75,17.08,0,11,0Z" fill="#ffa000"/><ellipse cx="11" cy="4" rx="11" ry="4" fill="#ffc107"/></svg>